<svg width="125" height="40" viewBox="0 0 125 40" fill="none" xmlns="http://www.w3.org/2000/svg">
<path d="M120.42 40H4.45576C1.99502 40 0 38.2503 0 36.0916V8.14382C0 6.04915 1.88372 4.3261 4.27035 4.23887L120.234 0.00345159C122.765 -0.0889602 124.875 1.68608 124.875 3.9084V36.0923C124.876 38.2501 122.881 40 120.42 40Z" fill="#11BDCF"/>
<path d="M23.7504 24.0235V29.1433C23.7508 29.1859 23.7407 29.2281 23.721 29.2659C23.7012 29.3038 23.6725 29.3362 23.6373 29.3603C22.1182 30.3904 19.8013 31.1216 17.869 31.1216C13.5633 31.1216 10.3086 28.0084 10.3086 23.885C10.3086 19.7821 13.6438 16.6895 18.1108 16.6895C20.1204 16.6895 22.2417 17.4289 23.6956 18.6245C23.7481 18.6691 23.7808 18.7327 23.7866 18.8013C23.7924 18.8699 23.7709 18.9381 23.7266 18.9909L22.0379 21.0339C22.016 21.0602 21.9891 21.0817 21.9588 21.0974C21.9284 21.1131 21.8953 21.1226 21.8612 21.1254C21.8272 21.1281 21.7929 21.124 21.7605 21.1133C21.7281 21.1026 21.6981 21.0856 21.6723 21.0632C20.6608 20.2167 19.3216 19.7008 18.0903 19.7008C15.7661 19.7008 13.9876 21.5203 13.9876 23.885C13.9876 26.2907 15.7859 28.1095 18.1305 28.1095C18.8167 28.1095 19.681 27.8766 20.4892 27.4945C20.5337 27.473 20.5712 27.4394 20.5974 27.3975C20.6236 27.3556 20.6374 27.3071 20.6372 27.2577V24.0235C20.6372 23.9895 20.644 23.9557 20.657 23.9243C20.6701 23.8928 20.6892 23.8642 20.7133 23.8401C20.7374 23.816 20.766 23.7969 20.7975 23.7839C20.829 23.7709 20.8627 23.7642 20.8968 23.7642H23.4908C23.5249 23.7642 23.5586 23.7709 23.5901 23.7839C23.6216 23.7969 23.6502 23.816 23.6743 23.8401C23.6984 23.8642 23.7176 23.8928 23.7306 23.9243C23.7437 23.9557 23.7504 23.9895 23.7504 24.0235Z" fill="#113255"/>
<path d="M33.4962 26.9779H30.6656V30.9605H27.0684V16.8105H33.3951C37.1337 16.8105 39.2763 18.59 39.2763 21.7427C39.2763 23.9058 38.3673 25.4624 36.7098 26.2909L39.6807 30.9605H35.5978L33.4962 26.9779ZM33.3961 24.1483C34.9518 24.1483 35.8618 23.3601 35.8618 21.8642C35.8618 20.3888 34.9518 19.6403 33.3961 19.6403H30.6656V24.1483H33.3961Z" fill="#113255"/>
<path d="M45.7271 28.352L44.6964 30.9605H40.9971L47.1025 16.8105H50.8011L56.763 30.9605H52.9232L51.9124 28.3525L45.7271 28.352ZM48.8405 20.3883L46.7774 25.6235H50.8611L48.8405 20.3883Z" fill="#113255"/>
<path d="M64.9717 16.8105C69.4187 16.8105 72.4908 19.6813 72.4908 23.8853C72.4908 28.0694 69.3777 30.96 64.8301 30.96H58.8872V16.8105H64.9717ZM62.4855 28.0899H65.0522C67.2556 28.0899 68.832 26.392 68.832 23.9058C68.832 21.3991 67.175 19.6813 64.8911 19.6813H62.4855V28.0899Z" fill="#113255"/>
<path d="M78.7997 19.6403V22.4504H85.5515V25.2799H78.7997V28.1307H86.5018V30.9605H75.2021V16.8105H86.2785V19.6403H78.7997Z" fill="#113255"/>
<path d="M99.2377 27.9486V30.9605H89.6367V16.8105H93.234V27.9486H99.2377Z" fill="#113255"/>
<path d="M109.063 30.9605H105.485V26.493L100.25 16.8105H103.847L107.264 22.9755L110.599 16.8105H114.196L109.063 26.392V30.9605Z" fill="#113255"/>
</svg>
